<svg xmlns="http://www.w3.org/2000/svg" viewBox="0 0 197.37 186.63"><defs><style>.cls-1{fill:none;}.cls-1,.cls-2{stroke:#666eb4;stroke-linejoin:round;stroke-width:8px;}.cls-2{fill:#666eb4;}</style></defs><g id="Layer_2" data-name="Layer 2"><path class="cls-1" d="M201.16,32.36v65h-189v-65A20.41,20.41,0,0,1,32.55,12h148.2A20.41,20.41,0,0,1,201.16,32.36Z" transform="translate(-7.79 -7.95)"/><path class="cls-2" d="M192.53,145H20.06a8.28,8.28,0,0,0-8.27,8.28v29a8.28,8.28,0,0,0,8.27,8.28H192.53a8.28,8.28,0,0,0,8.28-8.28v-29A8.28,8.28,0,0,0,192.53,145Zm-58.38,37.24H21.61V167.78H134.15Zm50.61,0A7.23,7.23,0,1,1,192,175,7.23,7.23,0,0,1,184.76,182.22Z" transform="translate(-7.79 -7.95)"/><path class="cls-2" d="M201.16,97.4v13.73a20.41,20.41,0,0,1-20.41,20.42H32.55a20.41,20.41,0,0,1-20.41-20.42V97.4Z" transform="translate(-7.79 -7.95)"/></g></svg>