<svg xmlns="http://www.w3.org/2000/svg" viewBox="0 0 207.37 207.38"><defs><style>.cls-1{fill:none;stroke:#666eb4;stroke-linejoin:round;stroke-width:8px;}</style></defs><g id="Layer_2" data-name="Layer 2"><path class="cls-1" d="M38,132.12l.61.61-.32-.31A4.11,4.11,0,0,1,38,132.12Z" transform="translate(-2.58 -3.61)"/><path class="cls-1" d="M61.59,109.16l.31.32-.61-.61Z" transform="translate(-2.58 -3.61)"/><path class="cls-1" d="M131.72,39.69l7.7,7.7v0l-7.91-7.91A1.8,1.8,0,0,1,131.72,39.69Z" transform="translate(-2.58 -3.61)"/><line class="cls-1" x1="101.93" y1="101.9" x2="99.63" y2="99.6"/><line class="cls-1" x1="78.64" y1="125.19" x2="76.34" y2="122.89"/><line class="cls-1" x1="125.19" y1="78.64" x2="122.89" y2="76.34"/><path class="cls-1" d="M125.46,80,81.2,35.68a16.44,16.44,0,1,1,23.25-23.25l35,35v0l47.26,47.25a68.17,68.17,0,0,1,5.55,6.3,65.8,65.8,0,0,1-98.6,86.77L11.4,105.48A16.44,16.44,0,1,1,34.65,82.23L78.92,126.5" transform="translate(-2.58 -3.61)"/><path class="cls-1" d="M78.92,126.5" transform="translate(-2.58 -3.61)"/><path class="cls-1" d="M78.92,126.5l-17-17-.31-.32-.3-.29L34.65,82.23A16.45,16.45,0,1,1,57.91,59l44.26,44.27" transform="translate(-2.58 -3.61)"/><path class="cls-1" d="M61.59,109.16l.31.32-.61-.61Z" transform="translate(-2.58 -3.61)"/><path class="cls-1" d="M102.21,103.2,57.94,58.94A16.45,16.45,0,1,1,81.2,35.68L125.46,80" transform="translate(-2.58 -3.61)"/><path class="cls-1" d="M171.36,41.91l21,59-.1,0a68.17,68.17,0,0,0-5.55-6.3L139.42,47.39a16.45,16.45,0,0,1,31.94-5.48Z" transform="translate(-2.58 -3.61)"/></g></svg>