<svg xmlns="http://www.w3.org/2000/svg" viewBox="0 0 188.2 187.85"><defs><style>.cls-1{fill:none;stroke:#666eb4;stroke-linejoin:round;stroke-width:8px;}</style></defs><g id="Layer_2" data-name="Layer 2"><path class="cls-1" d="M173,182.6a68.76,68.76,0,0,1-97.24,0L18.28,125.16l-.34-.33a17.19,17.19,0,0,1,24.31-24.31l.33.34,0,0a17.19,17.19,0,0,1,24.31-24.3,17.19,17.19,0,0,1,24.3-24.31,17.19,17.19,0,0,1,24.31-24.3L173,85.35A68.76,68.76,0,0,1,173,182.6Z" transform="translate(-8.91 -18.89)"/><line class="cls-1" x1="58.01" y1="57.64" x2="78.19" y2="77.81"/><line class="cls-1" x1="33.67" y1="81.97" x2="53.85" y2="102.15"/><line class="cls-1" x1="82.31" y1="33.33" x2="102.49" y2="53.51"/><path class="cls-1" d="M137,49.34l9.85-.84a29.24,29.24,0,0,1,31.08,23l6,28.05" transform="translate(-8.91 -18.89)"/></g></svg>