<svg xmlns="http://www.w3.org/2000/svg" viewBox="0 0 181.87 207.39"><defs><style>.cls-1{fill:none;stroke:#666eb4;stroke-linejoin:round;stroke-width:8px;}</style></defs><g id="Layer_2" data-name="Layer 2"><line class="cls-1" x1="56.12" y1="81.6" x2="75.58" y2="101.07"/><line class="cls-1" x1="32.63" y1="105.08" x2="52.1" y2="124.55"/><line class="cls-1" x1="99.03" y1="77.62" x2="98.36" y2="76.94"/><path class="cls-1" d="M138.05,59l9.5-.81a28.22,28.22,0,0,1,30,22.19l5.79,27.07" transform="translate(-14.36 -3.64)"/><path class="cls-1" d="M136.16,57.14l-19-19,.21.19,55.41,55.42A66.34,66.34,0,1,1,79,187.59L23.54,132.16l-.32-.31a16.59,16.59,0,0,1,23.45-23.46l.32.33,0,0A16.59,16.59,0,0,1,70.46,85.23L44.32,59.09A16.58,16.58,0,0,1,67.77,35.64l45,44.94" transform="translate(-14.36 -3.64)"/><path class="cls-1" d="M112.72,80.58,68.08,35.94A16.57,16.57,0,0,1,91.52,12.5l44.64,44.64" transform="translate(-14.36 -3.64)"/></g></svg>